<!-- icon666.com - MILLIONS vector ICONS FREE --><svg id="Layer_1" enable-background="new 0 0 50 50" viewBox="0 0 50 50" xmlns="http://www.w3.org/2000/svg"><path d="m25 2c-12.7 0-23 10.3-23 23 0 5.48 1.91 10.52 5.12 14.46 4.23 5.21 10.67 8.54 17.88 8.54s13.65-3.33 17.88-8.54c3.21-3.94 5.12-8.98 5.12-14.46 0-12.7-10.3-23-23-23zm0 9.86c3.39 0 6.13 2.74 6.13 6.13s-2.74 6.13-6.13 6.13-6.13-2.74-6.13-6.13 2.74-6.13 6.13-6.13zm13.48 25.98c-3.35 3.65-8.15 5.94-13.48 5.94s-10.13-2.29-13.48-5.94c-.44-.49-.52-1.23-.17-1.78 2.81-4.58 7.88-7.61 13.65-7.61s10.84 3.03 13.65 7.61c.35.55.27 1.29-.17 1.78z" fill="#2196f3" style="fill: rgb(217, 217, 217);"></path></svg>